<?xml version="1.0" encoding="UTF-8" standalone="no"?>
<!DOCTYPE svg PUBLIC "-//W3C//DTD SVG 1.1//EN" "http://www.w3.org/Graphics/SVG/1.1/DTD/svg11.dtd">
<svg version="1.1" xmlns="http://www.w3.org/2000/svg" xmlns:xlink="http://www.w3.org/1999/xlink" preserveAspectRatio="xMidYMid meet" viewBox="26.287299638521745 201.77604990009462 565.8506313959612 283.2071536978097" width="561.85" height="279.21"><defs><path d="M138.47 206.28C120.97 208.6 97.19 218.53 82.11 229.66C59.86 246.15 43.41 268 34.87 292.42C27.21 314.44 27.29 312.44 27.29 403.22C27.29 449.82 27.53 481.44 28.01 481.68C28.42 481.92 35.27 482.08 43.33 481.92C44.3 481.9 49.17 481.82 57.92 481.68C57.92 435.42 57.92 409.72 57.92 404.58C57.92 321.96 57.92 321.56 62.04 307.63C66.31 293.46 74.69 278.89 85.34 267.52C98.64 253.19 115.49 243.27 135.32 237.9C135.89 237.75 138.71 236.97 143.79 235.58C177.5 235.34 196.24 235.21 199.98 235.18C230.86 234.94 256.42 234.46 256.82 234.14C257.55 233.34 258.11 210.2 257.39 206.92C257.35 206.78 257.19 206.06 256.9 204.76C223.19 204.76 204.45 204.76 200.71 204.76C169.75 204.76 144.27 204.92 144.03 205.16C143.79 205.4 141.29 205.88 138.47 206.28Z" id="b13vC2jjWw"></path><path d="M378.3 217.49C371.65 220.78 358.34 229.36 352.6 233.93C321.81 258.39 303.01 293.92 300.52 332.26C299.52 347.42 300.68 360.41 304.34 374.45C306.59 383.11 306.84 383.99 309.75 391.29C318.9 413.91 334.71 434.92 353.26 449.03C355.59 450.8 357.59 452.48 357.84 452.72C360.33 455.37 383.71 467.96 390.7 470.37C391.62 470.69 394.28 471.65 396.61 472.53C401.93 474.54 416.16 477.83 424.4 479.03C430.97 479.99 586.8 480.39 588.38 479.51C589.46 478.79 589.37 338.36 588.21 328.49C585.38 304.19 577.81 283.34 564.83 264.81C558.18 255.19 548.77 244.6 541.95 238.9C538.87 236.26 536.13 233.93 535.88 233.69C534.63 232.49 524.9 225.67 521.32 223.51C505.18 213.88 488.96 207.87 468.49 203.94C462.5 202.73 429.39 202.33 423.56 203.38C408.42 205.94 389.04 211.96 378.3 217.49ZM524.31 265.05C539.71 279.97 550.02 298.5 554.85 319.91C557.26 330.5 557.68 342.61 557.34 395.14C557.09 441.66 556.93 448.79 555.85 449.44C553.93 450.64 431.72 449.92 426.89 448.71C424.81 448.23 421.32 447.43 418.99 446.95C399.52 442.94 379.89 432.27 364.74 417.6C355.51 408.69 349.93 401.31 344.69 391.29C334.54 371.64 331.55 358.97 332.3 337.63C332.96 317.26 337.04 303.63 348.02 284.86C353.51 275.56 368.32 260.32 379.14 252.78C393.7 242.75 411.33 236.02 429.8 233.37C435.54 232.57 461.58 233.61 467.66 234.89C489.29 239.47 508.42 249.65 524.31 265.05Z" id="a2CvLFdXL"></path></defs><g><g><use xlink:href="#b13vC2jjWw" opacity="1" fill="#ffffff" fill-opacity="1"></use><g><use xlink:href="#b13vC2jjWw" opacity="1" fill-opacity="0" stroke="#000000" stroke-width="1" stroke-opacity="0"></use></g></g><g><use xlink:href="#a2CvLFdXL" opacity="1" fill="#ffffff" fill-opacity="1"></use><g><use xlink:href="#a2CvLFdXL" opacity="1" fill-opacity="0" stroke="#000000" stroke-width="1" stroke-opacity="0"></use></g></g></g></svg>